<svg width="258" height="46" viewBox="0 0 258 46" fill="none" xmlns="http://www.w3.org/2000/svg">
<path d="M70.4596 25.6845V23.3142H72.8114V25.6845H70.4596ZM75.1398 22.5689C75.1398 21.7255 75.3722 21.0185 75.8392 20.4456C76.3062 19.8749 76.9288 19.4639 77.7049 19.2168C78.481 18.9677 79.1996 18.7994 79.8627 18.7079C80.5258 18.6184 81.2274 18.5737 81.9651 18.5737H82.5515V18.3458C82.5515 16.6762 81.7156 15.8414 80.044 15.8414C78.9437 15.8414 77.8734 16.2098 76.835 16.9466L75.9522 15.3452C76.4192 14.9533 77.0524 14.6296 77.852 14.3741C78.6495 14.1185 79.4405 13.9907 80.2252 13.9907C81.6709 13.9907 82.786 14.3741 83.5685 15.1407C84.3532 15.9095 84.7455 17.0148 84.7455 18.4587V25.6845H82.6879V24.5324L82.7562 23.6294H82.7114C82.3638 24.3066 81.8564 24.8625 81.1847 25.2991C80.5152 25.7356 79.7732 25.955 78.9587 25.955C77.9181 25.955 77.0226 25.6462 76.2699 25.0286C75.5151 24.411 75.1398 23.5911 75.1398 22.5689ZM77.3318 22.3879C77.3318 22.8841 77.5194 23.3142 77.8968 23.6741C78.2721 24.0362 78.8009 24.2172 79.4789 24.2172C80.383 24.2172 81.1207 23.8403 81.6943 23.0885C82.2658 22.3346 82.5515 21.4998 82.5515 20.5819V20.1517H81.9864C78.884 20.1517 77.3318 20.8971 77.3318 22.3879ZM87.9759 25.6845V14.2612H92.7009C93.8757 14.2612 94.8075 14.5125 95.492 15.0172C96.1786 15.5219 96.5197 16.2481 96.5197 17.1958C96.5197 17.7516 96.3769 18.2521 96.0911 18.6972C95.8054 19.1402 95.4046 19.4745 94.8928 19.7024V19.7237C95.5858 19.8898 96.121 20.2199 96.4984 20.7161C96.8737 21.2144 97.0634 21.7852 97.0634 22.4326C97.0634 23.4718 96.6818 24.2726 95.9227 24.8369C95.1615 25.4013 94.1401 25.6845 92.8587 25.6845H87.9759ZM90.1699 19.0912H92.3171C92.9653 19.0912 93.4536 18.9379 93.7862 18.6291C94.1167 18.3203 94.283 17.8943 94.283 17.3534C94.283 16.2992 93.605 15.7732 92.2489 15.7732H90.1699V19.0912ZM90.1699 24.1491H92.5196C93.2894 24.1491 93.8694 23.9915 94.2596 23.6741C94.6519 23.359 94.848 22.9224 94.848 22.3644C94.848 21.7937 94.6455 21.3486 94.2382 21.0334C93.831 20.7161 93.251 20.5585 92.4983 20.5585H90.1699V24.1491ZM102.351 25.6845V16.1353H98.3748V14.2612H108.522V16.1353H104.522V25.6845H102.351ZM109.539 19.9494C109.539 18.25 110.134 16.8295 111.326 15.6944C112.516 14.5572 113.97 13.9907 115.688 13.9907C117.42 13.9907 118.883 14.5551 120.072 15.6838C121.262 16.8125 121.857 18.2351 121.857 19.9494C121.857 21.6659 121.262 23.0949 120.072 24.2385C118.883 25.3821 117.428 25.955 115.71 25.955C113.993 25.955 112.535 25.3821 111.337 24.2385C110.138 23.0949 109.539 21.6659 109.539 19.9494ZM111.778 19.9494C111.778 21.1378 112.158 22.1216 112.919 22.8947C113.68 23.6699 114.61 24.0575 115.71 24.0575C116.795 24.0575 117.723 23.6678 118.49 22.8841C119.26 22.1025 119.644 21.1229 119.644 19.9494C119.644 18.776 119.26 17.8049 118.49 17.0382C117.723 16.2694 116.795 15.8861 115.71 15.8861C114.61 15.8861 113.68 16.2694 112.919 17.0382C112.158 17.8049 111.778 18.776 111.778 19.9494Z" fill="#5F5F5F"/>
<path fill-rule="evenodd" clip-rule="evenodd" d="M131.495 0.0180664H133.051V33.5427H131.495V0.0180664Z" fill="#E23626"/>
<path d="M145.452 0.197185H145.977V7.67857H145.452V5.67459C145.154 6.33265 144.7 6.85867 144.09 7.25265C143.48 7.64663 142.796 7.84468 142.039 7.84468C140.96 7.84468 140.041 7.46774 139.282 6.71385C138.523 5.95996 138.143 5.0357 138.143 3.93894C138.143 2.84218 138.523 1.9158 139.282 1.16404C140.041 0.410148 140.96 0.0332031 142.039 0.0332031C142.796 0.0332031 143.48 0.231259 144.09 0.62524C144.7 1.01922 145.154 1.54524 145.452 2.2033V0.197185ZM139.648 6.35394C140.303 7.00774 141.105 7.3357 142.054 7.3357C143.002 7.3357 143.806 7.00774 144.465 6.35394C145.124 5.70228 145.452 4.89515 145.452 3.93894C145.452 2.98061 145.124 2.17561 144.465 1.52181C143.806 0.868018 143.002 0.542185 142.054 0.542185C141.105 0.542185 140.303 0.868018 139.648 1.52181C138.994 2.17561 138.668 2.98061 138.668 3.93894C138.668 4.89515 138.994 5.70228 139.648 6.35394ZM152.418 0.0332031C153.497 0.0332031 154.416 0.410148 155.175 1.16404C155.934 1.9158 156.314 2.84218 156.314 3.93894C156.314 5.0357 155.934 5.95996 155.175 6.71385C154.416 7.46774 153.497 7.84468 152.418 7.84468C151.651 7.84468 150.966 7.64876 150.367 7.26117C149.768 6.87144 149.314 6.34755 149.005 5.6895V10.6707H148.465V0.197185H149.005V2.18839C149.314 1.53033 149.768 1.00644 150.367 0.616722C150.966 0.229129 151.651 0.0332031 152.418 0.0332031ZM149.985 6.35394C150.638 7.00774 151.44 7.3357 152.388 7.3357C153.337 7.3357 154.139 7.00774 154.794 6.35394C155.448 5.70228 155.774 4.89515 155.774 3.93894C155.774 2.98061 155.448 2.17561 154.794 1.52181C154.139 0.868018 153.337 0.542185 152.388 0.542185C151.44 0.542185 150.638 0.868018 149.985 1.52181C149.331 2.17561 149.005 2.98061 149.005 3.93894C149.005 4.89515 149.331 5.70228 149.985 6.35394ZM161.527 0.0332031C162.625 0.0332031 163.517 0.422925 164.201 1.20024C164.885 1.97755 165.227 2.90181 165.227 3.96876C165.227 4.08802 165.222 4.1732 165.212 4.22218H158.246C158.308 5.1507 158.651 5.90033 159.28 6.47533C159.909 7.0482 160.683 7.3357 161.602 7.3357C162.231 7.3357 162.787 7.20367 163.271 6.93746C163.757 6.67339 164.118 6.322 164.359 5.8833L164.824 6.15376C164.523 6.67126 164.092 7.08228 163.527 7.38681C162.962 7.69135 162.32 7.84468 161.602 7.84468C160.463 7.84468 159.529 7.47626 158.8 6.74367C158.071 6.01107 157.708 5.07617 157.708 3.93894C157.708 2.83154 158.067 1.90302 158.785 1.15552C159.506 0.408018 160.418 0.0332031 161.527 0.0332031ZM161.527 0.542185C160.608 0.542185 159.843 0.838203 159.229 1.43237C158.612 2.02654 158.282 2.79107 158.231 3.72811H164.687C164.619 2.76126 164.286 1.9882 163.691 1.40894C163.099 0.831814 162.376 0.542185 161.527 0.542185ZM172.717 0.197185H173.242V7.67857H172.717V4.19237H167.685V7.67857H167.146V0.197185H167.685V3.68339H172.717V0.197185ZM181.722 7.1845H182.768V9.68468H182.244V7.67857H175.414V9.68468H174.89V7.1845H175.713C176.282 6.38802 176.568 5.32533 176.568 3.99857V0.197185H181.722V7.1845ZM176.374 7.1845H181.197V0.691259H177.107V3.99857C177.107 5.28487 176.862 6.34755 176.374 7.1845ZM191.039 0.197185H191.562V7.67857H191.039V5.67459C190.739 6.33265 190.285 6.85867 189.675 7.25265C189.067 7.64663 188.383 7.84468 187.624 7.84468C186.545 7.84468 185.626 7.46774 184.867 6.71385C184.108 5.95996 183.728 5.0357 183.728 3.93894C183.728 2.84218 184.108 1.9158 184.867 1.16404C185.626 0.410148 186.545 0.0332031 187.624 0.0332031C188.383 0.0332031 189.067 0.231259 189.675 0.62524C190.285 1.01922 190.739 1.54524 191.039 2.2033V0.197185ZM185.233 6.35394C185.888 7.00774 186.69 7.3357 187.638 7.3357C188.587 7.3357 189.391 7.00774 190.05 6.35394C190.709 5.70228 191.039 4.89515 191.039 3.93894C191.039 2.98061 190.709 2.17561 190.05 1.52181C189.391 0.868018 188.587 0.542185 187.638 0.542185C186.69 0.542185 185.888 0.868018 185.233 1.52181C184.579 2.17561 184.253 2.98061 184.253 3.93894C184.253 4.89515 184.579 5.70228 185.233 6.35394ZM145.452 13.0687H145.977V20.5501H145.452V18.5461C145.154 19.2041 144.7 19.7301 144.09 20.1241C143.48 20.5181 142.796 20.714 142.039 20.714C140.96 20.714 140.041 20.3392 139.282 19.5853C138.523 18.8314 138.143 17.9072 138.143 16.8104C138.143 15.7115 138.523 14.7873 139.282 14.0334C140.041 13.2816 140.96 12.9047 142.039 12.9047C142.796 12.9047 143.48 13.1006 144.09 13.4946C144.7 13.8886 145.154 14.4167 145.452 15.0748V13.0687ZM139.648 19.2254C140.303 19.8792 141.105 20.2072 142.054 20.2072C143.002 20.2072 143.806 19.8792 144.465 19.2254C145.124 18.5738 145.452 17.7666 145.452 16.8104C145.452 15.8521 145.124 15.0471 144.465 14.3933C143.806 13.7395 143.002 13.4137 142.054 13.4137C141.105 13.4137 140.303 13.7395 139.648 14.3933C138.994 15.0471 138.668 15.8521 138.668 16.8104C138.668 17.7666 138.994 18.5738 139.648 19.2254ZM152.943 16.6741C153.403 16.804 153.755 17.034 154 17.3641C154.243 17.6921 154.367 18.0818 154.367 18.5312C154.367 19.1189 154.171 19.6024 153.783 19.9814C153.393 20.3605 152.83 20.5501 152.09 20.5501H148.465V13.0687H151.819C152.519 13.0687 153.056 13.2497 153.431 13.6075C153.804 13.9674 153.992 14.4295 153.992 15.0002C153.992 15.8074 153.642 16.3653 152.943 16.6741ZM151.819 13.5627H149.005V16.4803H151.819C152.339 16.4803 152.745 16.3504 153.032 16.0906C153.322 15.8329 153.467 15.473 153.467 15.013C153.467 14.5658 153.322 14.2101 153.032 13.9525C152.745 13.6926 152.339 13.5627 151.819 13.5627ZM152.09 20.056C152.64 20.056 153.066 19.9197 153.371 19.645C153.674 19.3702 153.828 18.989 153.828 18.5014C153.828 18.0222 153.674 17.6474 153.371 17.379C153.066 17.1086 152.64 16.9744 152.09 16.9744H149.005V20.056H152.09ZM160.943 13.0687V13.5627H158.171V20.5501H157.632V13.5627H154.862V13.0687H160.943ZM165.512 20.714C164.423 20.714 163.499 20.3392 162.74 19.5853C161.981 18.8314 161.602 17.9072 161.602 16.8104C161.602 15.7115 161.981 14.7873 162.74 14.0334C163.499 13.2816 164.423 12.9047 165.512 12.9047C166.61 12.9047 167.54 13.2816 168.299 14.0334C169.058 14.7873 169.438 15.7115 169.438 16.8104C169.438 17.9072 169.058 18.8314 168.299 19.5853C167.54 20.3392 166.61 20.714 165.512 20.714ZM163.107 19.2254C163.762 19.8792 164.563 20.2072 165.512 20.2072C166.461 20.2072 167.265 19.8792 167.924 19.2254C168.583 18.5738 168.913 17.7666 168.913 16.8104C168.913 15.8521 168.583 15.0471 167.924 14.3933C167.265 13.7395 166.461 13.4137 165.512 13.4137C164.563 13.4137 163.762 13.7395 163.107 14.3933C162.453 15.0471 162.126 15.8521 162.126 16.8104C162.126 17.7666 162.453 18.5738 163.107 19.2254ZM178.53 13.0687V20.5501H178.005V13.8013L175.009 18.4247H174.905L171.924 13.8332V20.5501H171.384V13.0687H172.043L174.965 17.543L177.886 13.0687H178.53ZM184.387 20.714C183.299 20.714 182.374 20.3392 181.615 19.5853C180.858 18.8314 180.476 17.9072 180.476 16.8104C180.476 15.7115 180.858 14.7873 181.615 14.0334C182.374 13.2816 183.299 12.9047 184.387 12.9047C185.485 12.9047 186.415 13.2816 187.174 14.0334C187.933 14.7873 188.312 15.7115 188.312 16.8104C188.312 17.9072 187.933 18.8314 187.174 19.5853C186.415 20.3392 185.485 20.714 184.387 20.714ZM181.984 19.2254C182.636 19.8792 183.438 20.2072 184.387 20.2072C185.336 20.2072 186.14 19.8792 186.798 19.2254C187.457 18.5738 187.788 17.7666 187.788 16.8104C187.788 15.8521 187.457 15.0471 186.798 14.3933C186.14 13.7395 185.336 13.4137 184.387 13.4137C183.438 13.4137 182.636 13.7395 181.984 14.3933C181.329 15.0471 181.001 15.8521 181.001 16.8104C181.001 17.7666 181.329 18.5738 181.984 19.2254ZM193.466 20.714C192.387 20.714 191.494 20.3626 190.784 19.6599C190.074 18.9571 189.72 18.0307 189.72 16.885C189.72 15.6583 189.897 14.7021 190.253 14.0185C190.607 13.3349 191.338 12.7258 192.447 12.187C192.707 12.0571 193.022 11.9144 193.398 11.7611C193.773 11.6056 194.067 11.4778 194.28 11.3777C194.496 11.2776 194.717 11.1584 194.948 11.02C195.178 10.8794 195.355 10.7218 195.481 10.5493C195.605 10.3726 195.688 10.166 195.728 9.92746L196.146 10.166C196.097 10.4258 196.001 10.6579 195.863 10.8624C195.722 11.0668 195.526 11.2457 195.27 11.4012C195.016 11.5545 194.779 11.6844 194.56 11.7909C194.338 11.8952 194.035 12.0273 193.645 12.187C193.255 12.3467 192.946 12.4809 192.715 12.5895C191.926 12.9686 191.353 13.3839 190.992 13.8332C190.634 14.2804 190.408 14.8938 190.319 15.6732C190.679 15.045 191.157 14.5679 191.749 14.2442C192.344 13.9205 192.961 13.7565 193.6 13.7565C194.59 13.7565 195.417 14.0866 196.086 14.7447C196.756 15.4027 197.091 16.2354 197.091 17.2427C197.091 18.2501 196.752 19.0806 196.071 19.7344C195.393 20.3882 194.523 20.714 193.466 20.714ZM193.466 20.2072C194.374 20.2072 195.118 19.9282 195.698 19.3766C196.276 18.8208 196.566 18.1116 196.566 17.2427C196.566 16.376 196.285 15.6604 195.72 15.0961C195.155 14.5339 194.434 14.2506 193.555 14.2506C192.756 14.2506 192.039 14.5083 191.406 15.0215C190.771 15.5348 190.389 16.1864 190.259 16.9744C190.259 17.9221 190.56 18.6973 191.159 19.3C191.758 19.9048 192.526 20.2072 193.466 20.2072ZM204.507 13.0687H204.984V20.5501H204.46V13.9674L199.368 20.5501H198.888V13.0687H199.428V19.6514L204.507 13.0687ZM213.524 13.0687V20.5501H212.984V13.5627H208.85V17.4685C208.85 19.6514 208.061 20.68 206.483 20.5501V20.056C207.102 20.1071 207.562 19.9282 207.861 19.5257C208.161 19.1211 208.31 18.4353 208.31 17.4685V13.0687H213.524ZM219.291 12.9047C220.39 12.9047 221.281 13.2944 221.965 14.0717C222.65 14.849 222.991 15.7733 222.991 16.8402C222.991 16.9595 222.987 17.0447 222.976 17.0937H216.01C216.07 18.0222 216.415 18.7718 217.044 19.3447C217.673 19.9197 218.447 20.2072 219.366 20.2072C219.995 20.2072 220.552 20.073 221.036 19.8089C221.52 19.5449 221.882 19.1935 222.123 18.7548L222.586 19.0231C222.287 19.5427 221.854 19.9538 221.291 20.2583C220.726 20.5628 220.085 20.714 219.366 20.714C218.228 20.714 217.294 20.3477 216.564 19.6151C215.835 18.8826 215.471 17.9476 215.471 16.8104C215.471 15.703 215.831 14.7745 216.549 14.027C217.27 13.2795 218.183 12.9047 219.291 12.9047ZM219.291 13.4137C218.372 13.4137 217.605 13.7097 216.991 14.3039C216.377 14.898 216.046 15.6626 215.995 16.5996H222.451C222.383 15.6327 222.051 14.8597 221.456 14.2804C220.861 13.7033 220.14 13.4137 219.291 13.4137ZM226.123 11.6631V11.2138H229.823V11.6631H226.123ZM230.526 13.0687H231.006V20.5501H230.481V13.9674L225.388 20.5501H224.91V13.0687H225.447V19.6514L230.526 13.0687ZM142.054 33.5855C140.945 33.5855 140.015 33.2107 139.267 32.4632C138.518 31.7157 138.143 30.7872 138.143 29.6798C138.143 28.5745 138.518 27.646 139.267 26.8985C140.015 26.1488 140.945 25.7762 142.054 25.7762C142.783 25.7762 143.442 25.9444 144.03 26.2851C144.619 26.6238 145.054 27.0774 145.333 27.646L144.9 27.8994C144.659 27.4117 144.284 27.0199 143.776 26.726C143.267 26.4321 142.691 26.2851 142.054 26.2851C141.094 26.2851 140.29 26.611 139.64 27.2648C138.992 27.9186 138.668 28.7236 138.668 29.6798C138.668 30.6381 138.992 31.4431 139.64 32.0969C140.29 32.7507 141.094 33.0765 142.054 33.0765C142.691 33.0765 143.265 32.9296 143.768 32.6357C144.273 32.3418 144.655 31.95 144.913 31.4623L145.348 31.7157C145.058 32.2843 144.619 32.7379 144.03 33.0765C143.442 33.4173 142.783 33.5855 142.054 33.5855ZM157.557 25.9401V33.4215H157.032V26.4342H152V33.4215H151.461V25.9401H157.557ZM163.998 25.7762C165.077 25.7762 165.996 26.1531 166.755 26.9049C167.514 27.6588 167.894 28.583 167.894 29.6798C167.894 30.7787 167.514 31.7029 166.755 32.4568C165.996 33.2086 165.077 33.5855 163.998 33.5855C163.231 33.5855 162.546 33.3917 161.947 33.002C161.348 32.6123 160.894 32.0905 160.583 31.4303V36.4137H160.045V25.9401H160.583V27.9292C160.894 27.2712 161.348 26.7473 161.947 26.3597C162.546 25.97 163.231 25.7762 163.998 25.7762ZM161.566 32.0969C162.218 32.7507 163.02 33.0765 163.969 33.0765C164.917 33.0765 165.719 32.7507 166.374 32.0969C167.028 31.4431 167.355 30.6381 167.355 29.6798C167.355 28.7236 167.028 27.9186 166.374 27.2648C165.719 26.611 164.917 26.2851 163.969 26.2851C163.02 26.2851 162.218 26.611 161.566 27.2648C160.911 27.9186 160.583 28.7236 160.583 29.6798C160.583 30.6381 160.911 31.4431 161.566 32.0969ZM176.598 25.9401H177.122V33.4215H176.598V31.4154C176.297 32.0756 175.843 32.6016 175.233 32.9956C174.625 33.3896 173.941 33.5855 173.182 33.5855C172.103 33.5855 171.184 33.2086 170.425 32.4568C169.666 31.7029 169.286 30.7787 169.286 29.6798C169.286 28.583 169.666 27.6588 170.425 26.9049C171.184 26.1531 172.103 25.7762 173.182 25.7762C173.941 25.7762 174.625 25.9721 175.233 26.3661C175.843 26.7601 176.297 27.2861 176.598 27.9441V25.9401ZM170.792 32.0969C171.446 32.7507 172.248 33.0765 173.197 33.0765C174.146 33.0765 174.95 32.7507 175.608 32.0969C176.267 31.4431 176.598 30.6381 176.598 29.6798C176.598 28.7236 176.267 27.9186 175.608 27.2648C174.95 26.611 174.146 26.2851 173.197 26.2851C172.248 26.2851 171.446 26.611 170.792 27.2648C170.139 27.9186 169.811 28.7236 169.811 29.6798C169.811 30.6381 170.139 31.4431 170.792 32.0969ZM184.088 29.5456C184.547 29.6755 184.899 29.9055 185.144 30.2335C185.389 30.5636 185.511 30.9533 185.511 31.4005C185.511 31.9904 185.316 32.4738 184.926 32.8529C184.536 33.232 183.973 33.4215 183.233 33.4215H179.609V25.9401H182.965C183.664 25.9401 184.199 26.119 184.574 26.4789C184.95 26.8388 185.137 27.301 185.137 27.8696C185.137 28.6788 184.788 29.2368 184.088 29.5456ZM182.965 26.4342H180.148V29.3518H182.965C183.483 29.3518 183.888 29.2219 184.178 28.9621C184.468 28.7023 184.613 28.3445 184.613 27.8845C184.613 27.4373 184.468 27.0816 184.178 26.8239C183.888 26.5641 183.483 26.4342 182.965 26.4342ZM183.233 32.9275C183.783 32.9275 184.21 32.7912 184.515 32.5164C184.82 32.2417 184.971 31.8605 184.971 31.3707C184.971 30.8937 184.82 30.5188 184.515 30.2484C184.21 29.98 183.783 29.8459 183.233 29.8459H180.148V32.9275H183.233ZM190.664 33.5855C189.575 33.5855 188.651 33.2086 187.892 32.4568C187.133 31.7029 186.754 30.7787 186.754 29.6798C186.754 28.583 187.133 27.6588 187.892 26.9049C188.651 26.1531 189.575 25.7762 190.664 25.7762C191.762 25.7762 192.692 26.1531 193.451 26.9049C194.21 27.6588 194.59 28.583 194.59 29.6798C194.59 30.7787 194.21 31.7029 193.451 32.4568C192.692 33.2086 191.762 33.5855 190.664 33.5855ZM188.259 32.0969C188.914 32.7507 189.715 33.0765 190.664 33.0765C191.613 33.0765 192.417 32.7507 193.076 32.0969C193.735 31.4431 194.065 30.6381 194.065 29.6798C194.065 28.7236 193.735 27.9186 193.076 27.2648C192.417 26.611 191.613 26.2851 190.664 26.2851C189.715 26.2851 188.914 26.611 188.259 27.2648C187.607 27.9186 187.278 28.7236 187.278 29.6798C187.278 30.6381 187.607 31.4431 188.259 32.0969ZM203.681 25.9401V33.4215H203.157V26.6727L200.161 31.2962H200.057L197.076 26.7026V33.4215H196.536V25.9401H197.195L200.116 30.4145L203.037 25.9401H203.681ZM214.886 29.5456C215.347 29.6755 215.699 29.9055 215.944 30.2335C216.187 30.5636 216.311 30.9533 216.311 31.4005C216.311 31.9904 216.114 32.4738 215.726 32.8529C215.336 33.232 214.771 33.4215 214.033 33.4215H210.409V25.9401H213.763C214.462 25.9401 214.999 26.119 215.375 26.4789C215.748 26.8388 215.935 27.301 215.935 27.8696C215.935 28.6788 215.586 29.2368 214.886 29.5456ZM213.763 26.4342H210.948V29.3518H213.763C214.283 29.3518 214.688 29.2219 214.976 28.9621C215.266 28.7023 215.411 28.3445 215.411 27.8845C215.411 27.4373 215.266 27.0816 214.976 26.8239C214.688 26.5641 214.283 26.4342 213.763 26.4342ZM214.033 32.9275C214.581 32.9275 215.01 32.7912 215.315 32.5164C215.618 32.2417 215.771 31.8605 215.771 31.3707C215.771 30.8937 215.618 30.5188 215.315 30.2484C215.01 29.98 214.581 29.8459 214.033 29.8459H210.948V32.9275H214.033ZM220.984 28.9025C221.663 28.9025 222.242 29.109 222.722 29.5243C223.2 29.9375 223.441 30.4784 223.441 31.1471C223.441 31.8158 223.2 32.361 222.722 32.7848C222.242 33.2086 221.663 33.4215 220.984 33.4215H218.093V25.9401H218.633V28.9025H220.984ZM224.684 25.9401H225.223V33.4215H224.684V25.9401ZM220.984 32.9275C221.532 32.9275 221.993 32.7613 222.362 32.427C222.731 32.0926 222.916 31.6646 222.916 31.1471C222.916 30.6381 222.731 30.2186 222.362 29.8906C221.993 29.5605 221.532 29.3965 220.984 29.3965H218.633V32.9275H220.984ZM233.132 33.4215H232.413L228.249 29.6947V33.4215H227.71V25.9401H228.249V29.3816L232.264 25.9401H232.983L228.803 29.5307L233.132 33.4215ZM240.083 25.9401H240.622L237.373 34.1094C237.072 34.8484 236.663 35.4276 236.145 35.8536C235.624 36.2774 235.061 36.4626 234.452 36.4137V35.9196C234.951 35.9686 235.413 35.8195 235.838 35.4702C236.262 35.121 236.603 34.629 236.863 33.9901L237.012 33.66L233.492 25.9401H234.032L237.268 33.0169L240.083 25.9401ZM248.217 25.9401V33.4215H247.693V26.4342H242.661V33.4215H242.121V25.9401H248.217ZM257.475 25.9401H258V33.4215H257.475V31.4154C257.177 32.0756 256.723 32.6016 256.113 32.9956C255.503 33.3896 254.819 33.5855 254.06 33.5855C252.983 33.5855 252.064 33.2086 251.305 32.4568C250.546 31.7029 250.166 30.7787 250.166 29.6798C250.166 28.583 250.546 27.6588 251.305 26.9049C252.064 26.1531 252.983 25.7762 254.06 25.7762C254.819 25.7762 255.503 25.9721 256.113 26.3661C256.723 26.7601 257.177 27.2861 257.475 27.9441V25.9401ZM251.672 32.0969C252.326 32.7507 253.128 33.0765 254.075 33.0765C255.023 33.0765 255.827 32.7507 256.488 32.0969C257.147 31.4431 257.475 30.6381 257.475 29.6798C257.475 28.7236 257.147 27.9186 256.488 27.2648C255.827 26.611 255.023 26.2851 254.075 26.2851C253.128 26.2851 252.326 26.611 251.672 27.2648C251.017 27.9186 250.691 28.7236 250.691 29.6798C250.691 30.6381 251.017 31.4431 251.672 32.0969Z" fill="#5F5F5F"/>
<path fill-rule="evenodd" clip-rule="evenodd" d="M23.4226 32.2354L7.5545 45.9821L8.81678 32.2354H23.4226Z" fill="#BD3121"/>
<path fill-rule="evenodd" clip-rule="evenodd" d="M8.65899 0.0180664H54.2056C58.969 0.0180664 62.8667 3.91103 62.8667 8.66649V24.8943C62.8667 29.6519 58.969 33.5427 54.2056 33.5427H8.65899C3.89559 33.5427 0 29.6519 0 24.8943V8.66649C0 3.91103 3.89559 0.0180664 8.65899 0.0180664V0.0180664Z" fill="#E23626"/>
<path d="M23.8 25.9549C21.4886 25.9549 19.5696 25.2585 18.0429 23.87C16.5184 22.4794 15.6143 20.6841 15.3307 18.4842H12.7827V25.5077H8.74855V8.82417H12.7827V15.1854H15.4246C15.8169 13.1601 16.7572 11.5182 18.2434 10.2617C19.7295 9.00519 21.5824 8.37695 23.8 8.37695C26.3629 8.37695 28.4312 9.20112 30.0048 10.8495C31.5784 12.4999 32.3651 14.5891 32.3651 17.1191C32.3651 19.647 31.5741 21.7532 29.9941 23.4334C28.412 25.1137 26.348 25.9549 23.8 25.9549ZM23.8 22.2792C25.1049 22.2792 26.139 21.783 26.9024 20.7948C27.6657 19.8045 28.0474 18.58 28.0474 17.1191C28.0474 15.6582 27.6657 14.44 26.9024 13.4668C26.139 12.4914 25.1049 12.0037 23.8 12.0037C22.478 12.0037 21.4375 12.4914 20.6741 13.4668C19.9108 14.44 19.5291 15.6582 19.5291 17.1191C19.5291 18.5949 19.9108 19.8237 20.6741 20.8055C21.4375 21.7872 22.478 22.2792 23.8 22.2792ZM35.0304 25.5077V8.82417H40.7619L44.5615 19.5213H44.6553L48.2887 8.82417H54.116V25.5077H50.1757L50.2716 13.701H50.1991L45.8579 25.5077H43.0284L38.8045 13.701H38.7341L38.8279 25.5077H35.0304Z" fill="#FEFEFE"/>
</svg>
