<svg width="258" height="46" viewBox="0 0 258 46" fill="none" xmlns="http://www.w3.org/2000/svg">
<path d="M70.4596 25.6844V23.3141H72.8114V25.6844H70.4596ZM75.1398 22.5687C75.1398 21.7254 75.3722 21.0184 75.8392 20.4455C76.3062 19.8748 76.9288 19.4637 77.7049 19.2167C78.481 18.9675 79.1996 18.7993 79.8627 18.7077C80.5258 18.6183 81.2274 18.5736 81.9651 18.5736H82.5515V18.3457C82.5515 16.6761 81.7156 15.8412 80.044 15.8412C78.9437 15.8412 77.8734 16.2097 76.835 16.9465L75.9522 15.345C76.4192 14.9532 77.0524 14.6295 77.852 14.3739C78.6495 14.1184 79.4405 13.9906 80.2252 13.9906C81.6709 13.9906 82.786 14.3739 83.5685 15.1406C84.3532 15.9094 84.7455 17.0147 84.7455 18.4586V25.6844H82.6879V24.5323L82.7562 23.6293H82.7114C82.3638 24.3065 81.8564 24.8624 81.1847 25.2989C80.5152 25.7355 79.7732 25.9549 78.9587 25.9549C77.9181 25.9549 77.0226 25.6461 76.2699 25.0285C75.5151 24.4109 75.1398 23.591 75.1398 22.5687ZM77.3318 22.3877C77.3318 22.8839 77.5194 23.3141 77.8968 23.674C78.2721 24.0361 78.8009 24.2171 79.4789 24.2171C80.383 24.2171 81.1207 23.8401 81.6943 23.0884C82.2658 22.3345 82.5515 21.4997 82.5515 20.5818V20.1516H81.9864C78.884 20.1516 77.3318 20.897 77.3318 22.3877ZM87.9759 25.6844V14.2611H92.7009C93.8757 14.2611 94.8075 14.5124 95.492 15.0171C96.1786 15.5218 96.5197 16.248 96.5197 17.1957C96.5197 17.7515 96.3769 18.252 96.0911 18.6971C95.8054 19.14 95.4046 19.4744 94.8928 19.7023V19.7236C95.5858 19.8897 96.121 20.2198 96.4984 20.716C96.8737 21.2143 97.0634 21.785 97.0634 22.4325C97.0634 23.4717 96.6818 24.2725 95.9227 24.8368C95.1615 25.4012 94.1401 25.6844 92.8587 25.6844H87.9759ZM90.1699 19.0911H92.3171C92.9653 19.0911 93.4536 18.9377 93.7862 18.6289C94.1167 18.3201 94.283 17.8942 94.283 17.3533C94.283 16.2991 93.605 15.7731 92.2489 15.7731H90.1699V19.0911ZM90.1699 24.1489H92.5196C93.2894 24.1489 93.8694 23.9913 94.2596 23.674C94.6519 23.3588 94.848 22.9223 94.848 22.3643C94.848 21.7936 94.6455 21.3485 94.2382 21.0333C93.831 20.716 93.251 20.5584 92.4983 20.5584H90.1699V24.1489ZM102.351 25.6844V16.1351H98.3748V14.2611H108.522V16.1351H104.522V25.6844H102.351ZM109.539 19.9493C109.539 18.2499 110.134 16.8294 111.326 15.6943C112.516 14.5571 113.97 13.9906 115.688 13.9906C117.42 13.9906 118.883 14.555 120.072 15.6837C121.262 16.8124 121.857 18.235 121.857 19.9493C121.857 21.6658 121.262 23.0948 120.072 24.2384C118.883 25.382 117.428 25.9549 115.71 25.9549C113.993 25.9549 112.535 25.382 111.337 24.2384C110.138 23.0948 109.539 21.6658 109.539 19.9493ZM111.778 19.9493C111.778 21.1376 112.158 22.1215 112.919 22.8946C113.68 23.6698 114.61 24.0574 115.71 24.0574C116.795 24.0574 117.723 23.6676 118.49 22.8839C119.26 22.1024 119.644 21.1227 119.644 19.9493C119.644 18.7759 119.26 17.8048 118.49 17.0381C117.723 16.2693 116.795 15.886 115.71 15.886C114.61 15.886 113.68 16.2693 112.919 17.0381C112.158 17.8048 111.778 18.7759 111.778 19.9493Z" fill="white"/>
<path fill-rule="evenodd" clip-rule="evenodd" d="M131.495 0.0180969H133.051V33.5427H131.495V0.0180969Z" fill="#E23626"/>
<path d="M145.452 0.196986H145.977V7.67837H145.452V5.67439C145.154 6.33245 144.7 6.85847 144.09 7.25245C143.48 7.64643 142.796 7.84449 142.039 7.84449C140.96 7.84449 140.041 7.46754 139.282 6.71365C138.523 5.95976 138.143 5.0355 138.143 3.93875C138.143 2.84199 138.523 1.9156 139.282 1.16384C140.041 0.409949 140.96 0.0330048 142.039 0.0330048C142.796 0.0330048 143.48 0.23106 144.09 0.625042C144.7 1.01902 145.154 1.54504 145.452 2.2031V0.196986ZM139.648 6.35374C140.303 7.00754 141.105 7.3355 142.054 7.3355C143.002 7.3355 143.806 7.00754 144.465 6.35374C145.124 5.70208 145.452 4.89495 145.452 3.93875C145.452 2.98041 145.124 2.17541 144.465 1.52162C143.806 0.867819 143.002 0.541986 142.054 0.541986C141.105 0.541986 140.303 0.867819 139.648 1.52162C138.994 2.17541 138.668 2.98041 138.668 3.93875C138.668 4.89495 138.994 5.70208 139.648 6.35374ZM152.418 0.0330048C153.497 0.0330048 154.416 0.409949 155.175 1.16384C155.934 1.9156 156.314 2.84199 156.314 3.93875C156.314 5.0355 155.934 5.95976 155.175 6.71365C154.416 7.46754 153.497 7.84449 152.418 7.84449C151.651 7.84449 150.966 7.64856 150.367 7.26097C149.768 6.87124 149.314 6.34736 149.005 5.6893V10.6705H148.465V0.196986H149.005V2.18819C149.314 1.53013 149.768 1.00625 150.367 0.616523C150.966 0.228931 151.651 0.0330048 152.418 0.0330048ZM149.985 6.35374C150.638 7.00754 151.44 7.3355 152.388 7.3355C153.337 7.3355 154.139 7.00754 154.794 6.35374C155.448 5.70208 155.774 4.89495 155.774 3.93875C155.774 2.98041 155.448 2.17541 154.794 1.52162C154.139 0.867819 153.337 0.541986 152.388 0.541986C151.44 0.541986 150.638 0.867819 149.985 1.52162C149.331 2.17541 149.005 2.98041 149.005 3.93875C149.005 4.89495 149.331 5.70208 149.985 6.35374ZM161.527 0.0330048C162.625 0.0330048 163.517 0.422727 164.201 1.20004C164.885 1.97736 165.227 2.90162 165.227 3.96856C165.227 4.08782 165.222 4.173 165.212 4.22199H158.246C158.308 5.1505 158.651 5.90013 159.28 6.47513C159.909 7.048 160.683 7.3355 161.602 7.3355C162.231 7.3355 162.787 7.20347 163.271 6.93726C163.757 6.67319 164.118 6.3218 164.359 5.8831L164.824 6.15356C164.523 6.67106 164.092 7.08208 163.527 7.38661C162.962 7.69115 162.32 7.84449 161.602 7.84449C160.463 7.84449 159.529 7.47606 158.8 6.74347C158.071 6.01087 157.708 5.07597 157.708 3.93875C157.708 2.83134 158.067 1.90282 158.785 1.15532C159.506 0.40782 160.418 0.0330048 161.527 0.0330048ZM161.527 0.541986C160.608 0.541986 159.843 0.838005 159.229 1.43217C158.612 2.02634 158.282 2.79087 158.231 3.72791H164.687C164.619 2.76106 164.286 1.988 163.691 1.40875C163.099 0.831616 162.376 0.541986 161.527 0.541986ZM172.717 0.196986H173.242V7.67837H172.717V4.19217H167.685V7.67837H167.146V0.196986H167.685V3.68319H172.717V0.196986ZM181.722 7.1843H182.768V9.68449H182.244V7.67837H175.414V9.68449H174.89V7.1843H175.713C176.282 6.38782 176.568 5.32513 176.568 3.99837V0.196986H181.722V7.1843ZM176.374 7.1843H181.197V0.69106H177.107V3.99837C177.107 5.28467 176.862 6.34736 176.374 7.1843ZM191.039 0.196986H191.562V7.67837H191.039V5.67439C190.739 6.33245 190.285 6.85847 189.675 7.25245C189.067 7.64643 188.383 7.84449 187.624 7.84449C186.545 7.84449 185.626 7.46754 184.867 6.71365C184.108 5.95976 183.728 5.0355 183.728 3.93875C183.728 2.84199 184.108 1.9156 184.867 1.16384C185.626 0.409949 186.545 0.0330048 187.624 0.0330048C188.383 0.0330048 189.067 0.23106 189.675 0.625042C190.285 1.01902 190.739 1.54504 191.039 2.2031V0.196986ZM185.233 6.35374C185.888 7.00754 186.69 7.3355 187.638 7.3355C188.587 7.3355 189.391 7.00754 190.05 6.35374C190.709 5.70208 191.039 4.89495 191.039 3.93875C191.039 2.98041 190.709 2.17541 190.05 1.52162C189.391 0.867819 188.587 0.541986 187.638 0.541986C186.69 0.541986 185.888 0.867819 185.233 1.52162C184.579 2.17541 184.253 2.98041 184.253 3.93875C184.253 4.89495 184.579 5.70208 185.233 6.35374ZM145.452 13.0685H145.977V20.5499H145.452V18.5459C145.154 19.2039 144.7 19.7299 144.09 20.1239C143.48 20.5179 142.796 20.7138 142.039 20.7138C140.96 20.7138 140.041 20.339 139.282 19.5851C138.523 18.8312 138.143 17.907 138.143 16.8102C138.143 15.7113 138.523 14.7871 139.282 14.0332C140.041 13.2814 140.96 12.9045 142.039 12.9045C142.796 12.9045 143.48 13.1004 144.09 13.4944C144.7 13.8884 145.154 14.4165 145.452 15.0746V13.0685ZM139.648 19.2252C140.303 19.879 141.105 20.207 142.054 20.207C143.002 20.207 143.806 19.879 144.465 19.2252C145.124 18.5736 145.452 17.7664 145.452 16.8102C145.452 15.8519 145.124 15.0469 144.465 14.3931C143.806 13.7393 143.002 13.4135 142.054 13.4135C141.105 13.4135 140.303 13.7393 139.648 14.3931C138.994 15.0469 138.668 15.8519 138.668 16.8102C138.668 17.7664 138.994 18.5736 139.648 19.2252ZM152.943 16.6739C153.403 16.8038 153.755 17.0338 154 17.3639C154.243 17.6919 154.367 18.0816 154.367 18.531C154.367 19.1187 154.171 19.6022 153.783 19.9812C153.393 20.3603 152.83 20.5499 152.09 20.5499H148.465V13.0685H151.819C152.519 13.0685 153.056 13.2495 153.431 13.6073C153.804 13.9672 153.992 14.4293 153.992 15C153.992 15.8072 153.642 16.3651 152.943 16.6739ZM151.819 13.5625H149.005V16.4801H151.819C152.339 16.4801 152.745 16.3502 153.032 16.0904C153.322 15.8327 153.467 15.4728 153.467 15.0128C153.467 14.5656 153.322 14.2099 153.032 13.9523C152.745 13.6924 152.339 13.5625 151.819 13.5625ZM152.09 20.0558C152.64 20.0558 153.066 19.9195 153.371 19.6448C153.674 19.37 153.828 18.9888 153.828 18.5012C153.828 18.022 153.674 17.6472 153.371 17.3788C153.066 17.1084 152.64 16.9742 152.09 16.9742H149.005V20.0558H152.09ZM160.943 13.0685V13.5625H158.171V20.5499H157.632V13.5625H154.862V13.0685H160.943ZM165.512 20.7138C164.423 20.7138 163.499 20.339 162.74 19.5851C161.981 18.8312 161.602 17.907 161.602 16.8102C161.602 15.7113 161.981 14.7871 162.74 14.0332C163.499 13.2814 164.423 12.9045 165.512 12.9045C166.61 12.9045 167.54 13.2814 168.299 14.0332C169.058 14.7871 169.438 15.7113 169.438 16.8102C169.438 17.907 169.058 18.8312 168.299 19.5851C167.54 20.339 166.61 20.7138 165.512 20.7138ZM163.107 19.2252C163.762 19.879 164.563 20.207 165.512 20.207C166.461 20.207 167.265 19.879 167.924 19.2252C168.583 18.5736 168.913 17.7664 168.913 16.8102C168.913 15.8519 168.583 15.0469 167.924 14.3931C167.265 13.7393 166.461 13.4135 165.512 13.4135C164.563 13.4135 163.762 13.7393 163.107 14.3931C162.453 15.0469 162.126 15.8519 162.126 16.8102C162.126 17.7664 162.453 18.5736 163.107 19.2252ZM178.53 13.0685V20.5499H178.005V13.8011L175.009 18.4245H174.905L171.924 13.833V20.5499H171.384V13.0685H172.043L174.965 17.5428L177.886 13.0685H178.53ZM184.387 20.7138C183.299 20.7138 182.374 20.339 181.615 19.5851C180.858 18.8312 180.476 17.907 180.476 16.8102C180.476 15.7113 180.858 14.7871 181.615 14.0332C182.374 13.2814 183.299 12.9045 184.387 12.9045C185.485 12.9045 186.415 13.2814 187.174 14.0332C187.933 14.7871 188.312 15.7113 188.312 16.8102C188.312 17.907 187.933 18.8312 187.174 19.5851C186.415 20.339 185.485 20.7138 184.387 20.7138ZM181.984 19.2252C182.636 19.879 183.438 20.207 184.387 20.207C185.336 20.207 186.14 19.879 186.798 19.2252C187.457 18.5736 187.788 17.7664 187.788 16.8102C187.788 15.8519 187.457 15.0469 186.798 14.3931C186.14 13.7393 185.336 13.4135 184.387 13.4135C183.438 13.4135 182.636 13.7393 181.984 14.3931C181.329 15.0469 181.001 15.8519 181.001 16.8102C181.001 17.7664 181.329 18.5736 181.984 19.2252ZM193.466 20.7138C192.387 20.7138 191.494 20.3624 190.784 19.6597C190.074 18.9569 189.72 18.0305 189.72 16.8848C189.72 15.6581 189.897 14.7019 190.253 14.0183C190.607 13.3347 191.338 12.7256 192.447 12.1868C192.707 12.0569 193.022 11.9142 193.398 11.7609C193.773 11.6054 194.067 11.4776 194.28 11.3775C194.496 11.2774 194.717 11.1582 194.948 11.0198C195.178 10.8792 195.355 10.7216 195.481 10.5491C195.605 10.3724 195.688 10.1658 195.728 9.92726L196.146 10.1658C196.097 10.4256 196.001 10.6577 195.863 10.8622C195.722 11.0666 195.526 11.2455 195.27 11.401C195.016 11.5543 194.779 11.6842 194.56 11.7907C194.338 11.895 194.035 12.0271 193.645 12.1868C193.255 12.3465 192.946 12.4807 192.715 12.5893C191.926 12.9684 191.353 13.3837 190.992 13.833C190.634 14.2802 190.408 14.8936 190.319 15.673C190.679 15.0448 191.157 14.5677 191.749 14.244C192.344 13.9203 192.961 13.7563 193.6 13.7563C194.59 13.7563 195.417 14.0864 196.086 14.7445C196.756 15.4025 197.091 16.2352 197.091 17.2425C197.091 18.2499 196.752 19.0804 196.071 19.7342C195.393 20.388 194.523 20.7138 193.466 20.7138ZM193.466 20.207C194.374 20.207 195.118 19.928 195.698 19.3764C196.276 18.8206 196.566 18.1114 196.566 17.2425C196.566 16.3758 196.285 15.6602 195.72 15.0959C195.155 14.5337 194.434 14.2504 193.555 14.2504C192.756 14.2504 192.039 14.5081 191.406 15.0213C190.771 15.5346 190.389 16.1862 190.259 16.9742C190.259 17.9219 190.56 18.6971 191.159 19.2998C191.758 19.9046 192.526 20.207 193.466 20.207ZM204.507 13.0685H204.984V20.5499H204.46V13.9672L199.368 20.5499H198.888V13.0685H199.428V19.6512L204.507 13.0685ZM213.524 13.0685V20.5499H212.984V13.5625H208.85V17.4683C208.85 19.6512 208.061 20.6798 206.483 20.5499V20.0558C207.102 20.1069 207.562 19.928 207.861 19.5255C208.161 19.1209 208.31 18.4351 208.31 17.4683V13.0685H213.524ZM219.291 12.9045C220.39 12.9045 221.281 13.2942 221.965 14.0715C222.65 14.8488 222.991 15.7731 222.991 16.84C222.991 16.9593 222.987 17.0445 222.976 17.0935H216.01C216.07 18.022 216.415 18.7716 217.044 19.3445C217.673 19.9195 218.447 20.207 219.366 20.207C219.995 20.207 220.552 20.0728 221.036 19.8087C221.52 19.5447 221.882 19.1933 222.123 18.7546L222.586 19.0229C222.287 19.5425 221.854 19.9536 221.291 20.2581C220.726 20.5626 220.085 20.7138 219.366 20.7138C218.228 20.7138 217.294 20.3475 216.564 19.6149C215.835 18.8824 215.471 17.9474 215.471 16.8102C215.471 15.7028 215.831 14.7743 216.549 14.0268C217.27 13.2793 218.183 12.9045 219.291 12.9045ZM219.291 13.4135C218.372 13.4135 217.605 13.7095 216.991 14.3037C216.377 14.8978 216.046 15.6624 215.995 16.5994H222.451C222.383 15.6325 222.051 14.8595 221.456 14.2802C220.861 13.7031 220.14 13.4135 219.291 13.4135ZM226.123 11.6629V11.2136H229.823V11.6629H226.123ZM230.526 13.0685H231.006V20.5499H230.481V13.9672L225.388 20.5499H224.91V13.0685H225.447V19.6512L230.526 13.0685ZM142.054 33.5853C140.945 33.5853 140.015 33.2105 139.267 32.463C138.518 31.7155 138.143 30.787 138.143 29.6796C138.143 28.5743 138.518 27.6458 139.267 26.8983C140.015 26.1487 140.945 25.776 142.054 25.776C142.783 25.776 143.442 25.9442 144.03 26.2849C144.619 26.6236 145.054 27.0772 145.333 27.6458L144.9 27.8992C144.659 27.4115 144.284 27.0197 143.776 26.7258C143.267 26.4319 142.691 26.2849 142.054 26.2849C141.094 26.2849 140.29 26.6108 139.64 27.2646C138.992 27.9184 138.668 28.7234 138.668 29.6796C138.668 30.6379 138.992 31.4429 139.64 32.0967C140.29 32.7505 141.094 33.0763 142.054 33.0763C142.691 33.0763 143.265 32.9294 143.768 32.6355C144.273 32.3416 144.655 31.9498 144.913 31.4621L145.348 31.7155C145.058 32.2841 144.619 32.7377 144.03 33.0763C143.442 33.4171 142.783 33.5853 142.054 33.5853ZM157.557 25.9399V33.4213H157.032V26.434H152V33.4213H151.461V25.9399H157.557ZM163.998 25.776C165.077 25.776 165.996 26.1529 166.755 26.9047C167.514 27.6586 167.894 28.5828 167.894 29.6796C167.894 30.7785 167.514 31.7027 166.755 32.4566C165.996 33.2084 165.077 33.5853 163.998 33.5853C163.231 33.5853 162.546 33.3915 161.947 33.0018C161.348 32.6121 160.894 32.0903 160.583 31.4301V36.4135H160.045V25.9399H160.583V27.929C160.894 27.271 161.348 26.7471 161.947 26.3595C162.546 25.9698 163.231 25.776 163.998 25.776ZM161.566 32.0967C162.218 32.7505 163.02 33.0763 163.969 33.0763C164.917 33.0763 165.719 32.7505 166.374 32.0967C167.028 31.4429 167.355 30.6379 167.355 29.6796C167.355 28.7234 167.028 27.9184 166.374 27.2646C165.719 26.6108 164.917 26.2849 163.969 26.2849C163.02 26.2849 162.218 26.6108 161.566 27.2646C160.911 27.9184 160.583 28.7234 160.583 29.6796C160.583 30.6379 160.911 31.4429 161.566 32.0967ZM176.598 25.9399H177.122V33.4213H176.598V31.4152C176.297 32.0754 175.843 32.6014 175.233 32.9954C174.625 33.3894 173.941 33.5853 173.182 33.5853C172.103 33.5853 171.184 33.2084 170.425 32.4566C169.666 31.7027 169.286 30.7785 169.286 29.6796C169.286 28.5828 169.666 27.6586 170.425 26.9047C171.184 26.1529 172.103 25.776 173.182 25.776C173.941 25.776 174.625 25.9719 175.233 26.3659C175.843 26.7599 176.297 27.2859 176.598 27.9439V25.9399ZM170.792 32.0967C171.446 32.7505 172.248 33.0763 173.197 33.0763C174.146 33.0763 174.95 32.7505 175.608 32.0967C176.267 31.4429 176.598 30.6379 176.598 29.6796C176.598 28.7234 176.267 27.9184 175.608 27.2646C174.95 26.6108 174.146 26.2849 173.197 26.2849C172.248 26.2849 171.446 26.6108 170.792 27.2646C170.139 27.9184 169.811 28.7234 169.811 29.6796C169.811 30.6379 170.139 31.4429 170.792 32.0967ZM184.088 29.5454C184.547 29.6753 184.899 29.9053 185.144 30.2333C185.389 30.5634 185.511 30.9531 185.511 31.4003C185.511 31.9902 185.316 32.4736 184.926 32.8527C184.536 33.2318 183.973 33.4213 183.233 33.4213H179.609V25.9399H182.965C183.664 25.9399 184.199 26.1188 184.574 26.4787C184.95 26.8386 185.137 27.3008 185.137 27.8694C185.137 28.6786 184.788 29.2366 184.088 29.5454ZM182.965 26.434H180.148V29.3516H182.965C183.483 29.3516 183.888 29.2217 184.178 28.9619C184.468 28.7021 184.613 28.3443 184.613 27.8843C184.613 27.4371 184.468 27.0814 184.178 26.8237C183.888 26.5639 183.483 26.434 182.965 26.434ZM183.233 32.9273C183.783 32.9273 184.21 32.791 184.515 32.5162C184.82 32.2415 184.971 31.8603 184.971 31.3705C184.971 30.8935 184.82 30.5186 184.515 30.2482C184.21 29.9799 183.783 29.8457 183.233 29.8457H180.148V32.9273H183.233ZM190.664 33.5853C189.575 33.5853 188.651 33.2084 187.892 32.4566C187.133 31.7027 186.754 30.7785 186.754 29.6796C186.754 28.5828 187.133 27.6586 187.892 26.9047C188.651 26.1529 189.575 25.776 190.664 25.776C191.762 25.776 192.692 26.1529 193.451 26.9047C194.21 27.6586 194.59 28.5828 194.59 29.6796C194.59 30.7785 194.21 31.7027 193.451 32.4566C192.692 33.2084 191.762 33.5853 190.664 33.5853ZM188.259 32.0967C188.914 32.7505 189.715 33.0763 190.664 33.0763C191.613 33.0763 192.417 32.7505 193.076 32.0967C193.735 31.4429 194.065 30.6379 194.065 29.6796C194.065 28.7234 193.735 27.9184 193.076 27.2646C192.417 26.6108 191.613 26.2849 190.664 26.2849C189.715 26.2849 188.914 26.6108 188.259 27.2646C187.607 27.9184 187.278 28.7234 187.278 29.6796C187.278 30.6379 187.607 31.4429 188.259 32.0967ZM203.681 25.9399V33.4213H203.157V26.6725L200.161 31.296H200.057L197.076 26.7024V33.4213H196.536V25.9399H197.195L200.116 30.4143L203.037 25.9399H203.681ZM214.886 29.5454C215.347 29.6753 215.699 29.9053 215.944 30.2333C216.187 30.5634 216.311 30.9531 216.311 31.4003C216.311 31.9902 216.114 32.4736 215.726 32.8527C215.336 33.2318 214.771 33.4213 214.033 33.4213H210.409V25.9399H213.763C214.462 25.9399 214.999 26.1188 215.375 26.4787C215.748 26.8386 215.935 27.3008 215.935 27.8694C215.935 28.6786 215.586 29.2366 214.886 29.5454ZM213.763 26.434H210.948V29.3516H213.763C214.283 29.3516 214.688 29.2217 214.976 28.9619C215.266 28.7021 215.411 28.3443 215.411 27.8843C215.411 27.4371 215.266 27.0814 214.976 26.8237C214.688 26.5639 214.283 26.434 213.763 26.434ZM214.033 32.9273C214.581 32.9273 215.01 32.791 215.315 32.5162C215.618 32.2415 215.771 31.8603 215.771 31.3705C215.771 30.8935 215.618 30.5186 215.315 30.2482C215.01 29.9799 214.581 29.8457 214.033 29.8457H210.948V32.9273H214.033ZM220.984 28.9023C221.663 28.9023 222.242 29.1088 222.722 29.5241C223.2 29.9373 223.441 30.4782 223.441 31.1469C223.441 31.8156 223.2 32.3608 222.722 32.7846C222.242 33.2084 221.663 33.4213 220.984 33.4213H218.093V25.9399H218.633V28.9023H220.984ZM224.684 25.9399H225.223V33.4213H224.684V25.9399ZM220.984 32.9273C221.532 32.9273 221.993 32.7611 222.362 32.4268C222.731 32.0924 222.916 31.6644 222.916 31.1469C222.916 30.6379 222.731 30.2184 222.362 29.8904C221.993 29.5603 221.532 29.3963 220.984 29.3963H218.633V32.9273H220.984ZM233.132 33.4213H232.413L228.249 29.6945V33.4213H227.71V25.9399H228.249V29.3814L232.264 25.9399H232.983L228.803 29.5305L233.132 33.4213ZM240.083 25.9399H240.622L237.373 34.1092C237.072 34.8482 236.663 35.4274 236.145 35.8534C235.624 36.2772 235.061 36.4624 234.452 36.4135V35.9194C234.951 35.9684 235.413 35.8193 235.838 35.47C236.262 35.1208 236.603 34.6288 236.863 33.9899L237.012 33.6599L233.492 25.9399H234.032L237.268 33.0167L240.083 25.9399ZM248.217 25.9399V33.4213H247.693V26.434H242.661V33.4213H242.121V25.9399H248.217ZM257.475 25.9399H258V33.4213H257.475V31.4152C257.177 32.0754 256.723 32.6014 256.113 32.9954C255.503 33.3894 254.819 33.5853 254.06 33.5853C252.983 33.5853 252.064 33.2084 251.305 32.4566C250.546 31.7027 250.166 30.7785 250.166 29.6796C250.166 28.5828 250.546 27.6586 251.305 26.9047C252.064 26.1529 252.983 25.776 254.06 25.776C254.819 25.776 255.503 25.9719 256.113 26.3659C256.723 26.7599 257.177 27.2859 257.475 27.9439V25.9399ZM251.672 32.0967C252.326 32.7505 253.128 33.0763 254.075 33.0763C255.023 33.0763 255.827 32.7505 256.488 32.0967C257.147 31.4429 257.475 30.6379 257.475 29.6796C257.475 28.7234 257.147 27.9184 256.488 27.2646C255.827 26.6108 255.023 26.2849 254.075 26.2849C253.128 26.2849 252.326 26.6108 251.672 27.2646C251.017 27.9184 250.691 28.7234 250.691 29.6796C250.691 30.6379 251.017 31.4429 251.672 32.0967Z" fill="white"/>
<path fill-rule="evenodd" clip-rule="evenodd" d="M23.4226 32.2351L7.5545 45.9819L8.81678 32.2351H23.4226Z" fill="#BD3121"/>
<path fill-rule="evenodd" clip-rule="evenodd" d="M8.65899 0.0179596H54.2056C58.969 0.0179596 62.8667 3.91092 62.8667 8.66639V24.8942C62.8667 29.6518 58.969 33.5426 54.2056 33.5426H8.65899C3.89559 33.5426 0 29.6518 0 24.8942V8.66639C0 3.91092 3.89559 0.0179596 8.65899 0.0179596V0.0179596Z" fill="#E23626"/>
<path d="M23.8 25.9549C21.4886 25.9549 19.5696 25.2585 18.0429 23.8699C16.5184 22.4793 15.6143 20.684 15.3307 18.4841H12.7827V25.5076H8.74855V8.82411H12.7827V15.1853H15.4246C15.8169 13.16 16.7572 11.5181 18.2434 10.2616C19.7295 9.00513 21.5825 8.37689 23.8 8.37689C26.3629 8.37689 28.4312 9.20106 30.0048 10.8494C31.5784 12.4999 32.3651 14.589 32.3651 17.119C32.3651 19.6469 31.5741 21.7531 29.9941 23.4334C28.412 25.1136 26.348 25.9549 23.8 25.9549ZM23.8 22.2791C25.1049 22.2791 26.139 21.7829 26.9024 20.7948C27.6657 19.8045 28.0474 18.5799 28.0474 17.119C28.0474 15.6581 27.6657 14.4399 26.9024 13.4667C26.139 12.4913 25.1049 12.0037 23.8 12.0037C22.478 12.0037 21.4375 12.4913 20.6741 13.4667C19.9108 14.4399 19.5291 15.6581 19.5291 17.119C19.5291 18.5949 19.9108 19.8236 20.6741 20.8054C21.4375 21.7872 22.478 22.2791 23.8 22.2791ZM35.0304 25.5076V8.82411H40.7619L44.5615 19.5212H44.6553L48.2887 8.82411H54.116V25.5076H50.1757L50.2716 13.701H50.1991L45.8579 25.5076H43.0284L38.8045 13.701H38.7341L38.8279 25.5076H35.0304Z" fill="#FEFEFE"/>
</svg>
